<?xml version="1.0" encoding="UTF-8"?>
<svg width="373px" height="148px" viewBox="0 0 373 148" version="1.1" xmlns="http://www.w3.org/2000/svg" xmlns:xlink="http://www.w3.org/1999/xlink">
    <!-- Generator: Sketch 52.4 (67378) - http://www.bohemiancoding.com/sketch -->
    <title>dirt copy</title>
    <desc>Created with Sketch.</desc>
    <defs>
        <linearGradient x1="50%" y1="107.470191%" x2="37.9376594%" y2="-61.2665691%" id="linearGradient-1">
            <stop stop-color="#FAD961" offset="0%"></stop>
            <stop stop-color="#F76B1C" offset="100%"></stop>
        </linearGradient>
    </defs>
    <g id="Page-1" stroke="none" stroke-width="1" fill="none" fill-rule="evenodd">
        <g id="dirt-copy" fill-rule="nonzero">
            <path d="M273.21875,0.28769 C269.17192,0.28769 265.47149,1.56006 262.59375,3.69394 C260.26039,2.58288 257.58479,1.94394 254.75,1.94394 C245.59717,1.94394 238.1875,8.52539 238.1875,16.63144 C238.1875,18.21987 238.47297,19.76128 239,21.19394 C236.41789,23.78205 234.84375,27.15623 234.84375,30.88144 C234.84375,32.14131 235.03788,33.37088 235.375,34.53769 C233.89097,34.96441 232.5174,35.56062 231.25,36.31894 C228.7784,37.44963 226.64542,39.07298 225.09375,41.10019 C225.09075,41.10119 225.09675,41.13019 225.09375,41.13139 C223.54857,41.71046 222.09314,42.3522 220.71875,43.06889 C218.10034,37.00732 213.10284,32.60966 207.15625,31.56889 C204.07673,28.79001 200.24973,27.13139 196.0625,27.13139 C192.10466,27.13139 188.42765,28.59163 185.4375,31.10014 C182.66591,29.11046 179.42591,27.94389 175.9375,27.94389 C166.43432,27.94389 158.64255,36.47716 157.78125,47.35014 C156.09348,46.74638 154.29386,46.41264 152.4375,46.41264 C146.83297,46.41264 141.81651,49.37825 138.46875,54.03764 C137.54465,53.99184 136.59941,53.94394 135.65625,53.94394 C132.71578,53.94394 129.88215,54.17359 127.15625,54.60019 C124.00273,48.19854 118.10465,43.88144 111.34375,43.88144 C103.67287,43.88144 97.10585,49.43058 94.40625,57.28769 C91.53643,49.88519 85.2027,44.72519 77.8125,44.72519 C72.23773,44.72519 67.25381,47.67101 63.90625,52.28769 C61.72961,51.21336 59.35382,50.60019 56.84375,50.60019 C49.30594,50.60019 42.81501,55.95914 40.03125,63.60019 C37.32865,61.74628 34.20143,60.66269 30.84375,60.66269 C24.07062,60.66269 18.14925,64.99188 15,71.41269 C13.6872,70.73884 12.21246,70.35019 10.6875,70.35019 C4.77898,70.35019 0,75.95735 0,82.88144 C0,89.80553 4.77898,95.41269 10.6875,95.41269 C12.48084,95.41269 14.20293,94.92034 15.6875,94.00644 C15.751,94.11663 15.84103,94.21022 15.90625,94.31894 C17.3064,98.34224 20.43995,101.31156 24.21875,101.97519 C26.27006,102.91068 28.51011,103.44394 30.84375,103.44394 C34.12423,103.44394 37.18349,102.40704 39.84375,100.63144 C41.13207,105.86021 45.24826,109.69394 50.125,109.69394 C50.90767,109.69394 51.6717,109.59944 52.40625,109.41269 C54.721,110.53173 57.2921,111.16269 60,111.16269 C62.29226,111.16269 64.47629,110.69733 66.5,109.88144 C68.38657,111.84639 70.86837,113.03769 73.59375,113.03769 C76.98946,113.03769 80.00893,111.17901 81.96875,108.28769 C86.37134,116.20882 98.07767,122.02573 112.125,122.66269 C113.97017,126.43081 117.43312,128.97519 121.40625,128.97519 C124.96856,128.97519 128.11805,126.92558 130.0625,123.78769 C131.07428,124.8653 132.20961,125.90243 133.5,126.85019 C134.32912,132.80717 138.74483,137.35019 144.0625,137.35019 C146.95777,137.35019 149.57392,136.00833 151.5,133.81894 L151.78125,133.85014 C153.39232,138.38384 157.20395,141.56889 161.65625,141.56889 C162.93481,141.56889 164.1759,141.30098 165.3125,140.81889 C171.64608,145.1604 180.82812,147.88139 191.03125,147.88139 C204.55797,147.88139 216.24632,143.09142 221.9375,136.10014 C222.71341,136.06714 223.489,136.00794 224.25,135.94389 C226.38973,136.8617 228.75947,137.41264 231.28125,137.41264 C238.19454,137.41264 244.10835,133.54869 246.59375,128.06889 C247.00863,127.7476 247.39633,127.43614 247.78125,127.10014 C248.68787,127.24008 249.61215,127.35014 250.5625,127.35014 C251.99794,127.35014 253.39049,127.16264 254.71875,126.85014 C256.56392,130.61826 260.02687,133.16264 264,133.16264 C268.31678,133.16264 272.02793,130.16472 273.71875,125.85014 C274.64446,125.9922 275.59093,126.06889 276.5625,126.06889 C279.72427,126.06889 282.67375,125.27333 285.1875,123.91264 C287.10053,126.0135 289.67139,127.28764 292.5,127.28764 C297.04044,127.28764 300.91549,123.96472 302.46875,119.28764 C302.91523,119.33424 303.35672,119.38134 303.8125,119.38134 C304.93571,119.38134 306.03324,119.21868 307.09375,118.94384 C308.87585,120.49948 311.07575,121.41259 313.46875,121.41259 C317.87901,121.41259 321.67552,118.28439 323.3125,113.81884 C325.82343,115.21394 328.7812,116.00634 331.9375,116.00634 C338.37842,116.00634 343.9447,112.67652 346.6875,107.78759 C348.60402,108.49298 350.71225,108.88134 352.90625,108.88134 C362.05908,108.88134 369.46875,102.12524 369.46875,93.78759 C369.46875,92.79996 369.35502,91.84731 369.15625,90.91259 C370.43189,88.7735 371.15625,86.33061 371.15625,83.72509 C371.15625,78.8585 368.61238,74.54836 364.6875,71.78759 C365.06859,70.51705 365.28125,69.16823 365.28125,67.78759 C365.28125,59.44994 357.84033,52.69384 348.6875,52.69384 C347.87786,52.69384 347.09108,52.77914 346.3125,52.88134 C346.63213,51.74324 346.8125,50.57579 346.8125,49.35009 C346.8125,41.24404 339.40283,34.66259 330.25,34.66259 C329.98539,34.66259 329.73033,34.68299 329.46875,34.69379 C327.62048,30.93953 324.15179,28.41254 320.1875,28.41254 C318.63863,28.41254 317.17274,28.81234 315.84375,29.50629 C311.74117,22.47647 301.84439,17.16684 289.71875,15.75629 C289.73555,15.48534 289.78125,15.21846 289.78125,14.94379 C289.78125,6.83774 282.37158,0.28754 273.21875,0.28754 L273.21875,0.28769 Z M315.9375,52.97519 C316.55549,54.29303 317.40427,55.50925 318.40625,56.60019 C317.48642,56.47839 316.53911,56.39456 315.59375,56.31894 C315.83844,55.31556 315.9375,54.2934 315.9375,53.22519 C315.9375,53.14089 315.9395,53.05914 315.9375,52.97519 Z M279.375,55.94394 C280.60282,56.05152 281.85924,56.1057 283.125,56.13144 C283.28529,56.83272 283.54369,57.50156 283.8125,58.16269 C282.38304,57.47037 280.84741,56.86738 279.25,56.31894 C279.2894,56.19413 279.3392,56.07007 279.375,55.94394 Z" id="Shape" fill="url(#linearGradient-1)"></path>
            <path d="M275.032338,5.01376244e-05 C270.984261,5.01376244e-05 267.282692,1.27592232 264.404065,3.4156758 C262.069987,2.30155762 259.393563,1.66085895 256.5579,1.66085895 C255.16128,1.66085895 253.820757,1.84176552 252.525408,2.13089917 C255.451079,4.36457045 258.211279,6.69978044 260.746689,9.08749456 C272.049589,10.3367938 280.815368,19.3744816 280.815368,30.3646489 C280.815368,32.760355 280.396359,35.075921 279.627502,37.2272362 C281.272899,42.2513872 282.159532,47.4202454 282.159532,52.7072278 C282.159532,52.7272828 282.159562,52.748842 282.159532,52.7698998 C286.611603,56.6845452 289.380505,62.2461114 289.380505,68.4379074 C289.380505,80.175025 279.375395,89.7315571 266.967354,89.903128 C266.589488,90.3401275 266.201459,90.7861519 265.810748,91.2191404 C266.778876,93.3692423 267.31121,95.687606 267.31121,98.0817779 C267.31121,109.925989 254.487362,119.515612 238.646135,119.515612 C237.236711,119.515612 235.843602,119.443113 234.488605,119.29621 C232.057436,129.666777 217.641118,137.627829 200.228057,137.627829 C194.149735,137.627829 188.437627,136.668997 183.472898,134.964218 C180.162539,138.780293 175.427111,141.568646 170,142.704264 C176.096447,146.018962 184.070642,148 192.819526,148 C206.350412,148 218.042361,143.196816 223.735294,136.186372 C224.511443,136.153282 225.287272,136.094219 226.048506,136.029742 C228.188895,136.949968 230.559365,137.502485 233.081922,137.502485 C239.997341,137.502485 245.912972,133.62795 248.399138,128.133067 C248.814145,127.810782 249.201965,127.498525 249.587003,127.1616 C250.493903,127.301885 251.418467,127.412288 252.36911,127.412288 C253.804992,127.412288 255.197971,127.224272 256.52664,126.910912 C258.372378,130.689384 261.836395,133.240787 265.810748,133.240787 C270.128858,133.240787 273.841151,130.234535 275.532492,125.908159 C276.458487,126.05055 277.405248,126.127562 278.377117,126.127562 C281.539861,126.127562 284.490249,125.329772 287.004774,123.965326 C288.918393,126.071909 291.490045,127.349616 294.319526,127.349616 C298.861364,127.349616 302.737607,124.01747 304.291346,119.327596 C304.737963,119.374726 305.179589,119.421554 305.63551,119.421554 C306.759066,119.421554 307.856934,119.258507 308.91777,118.98295 C310.700419,120.542732 312.900997,121.458445 315.294734,121.458445 C319.706352,121.458445 323.504031,118.321535 325.141515,113.843844 C327.653219,115.242683 330.611899,116.037264 333.769172,116.037264 C340.212075,116.037264 345.780069,112.698299 348.523714,107.795943 C350.440824,108.503284 352.549704,108.892653 354.744379,108.892653 C363.900028,108.892653 371.31198,102.118057 371.31198,93.7574077 C371.31198,92.7670894 371.198215,91.8117671 370.999384,90.8744943 C372.275417,88.7295065 373,86.2798824 373,83.6672108 C373,78.7872156 370.455347,74.4652521 366.529258,71.696853 C366.910465,70.422856 367.123191,69.0703434 367.123191,67.6858431 C367.123191,59.3252939 359.679979,52.5504976 350.52433,52.5505978 C349.714441,52.5505978 348.927418,52.6358318 348.148599,52.7385137 C348.468327,51.5972811 348.648753,50.4266678 348.648753,49.1975941 C348.648753,41.0692423 341.236801,34.4696669 332.081152,34.4696669 C331.81646,34.4696669 331.561322,34.4902233 331.299661,34.5009528 C329.450822,30.7363592 325.981064,28.2024137 322.015553,28.2024137 C320.466206,28.2024137 318.999864,28.6033142 317.670465,29.2991743 C313.566622,22.2500048 303.666794,16.9257601 291.537419,15.5113275 C291.554224,15.2396318 291.599938,14.9720172 291.599938,14.6965911 C291.599938,6.56822935 284.187986,0 275.032338,0 L275.032338,5.01376244e-05 Z M316.366667,55 C317.025856,56.4542345 317.931221,57.7962483 319,59 C318.018848,58.8656 317.008384,58.7730207 316,58.6897103 C316.261003,57.5824 316.366667,56.4545655 316.366667,55.2758621 C316.366667,55.1831724 316.3688,55.0926897 316.366667,55 Z" id="Shape" fill="#D5890D"></path>
        </g>
    </g>
</svg>