<?xml version="1.0" encoding="UTF-8"?>
<svg width="39px" height="66px" viewBox="0 0 39 66" version="1.1" xmlns="http://www.w3.org/2000/svg" xmlns:xlink="http://www.w3.org/1999/xlink">
    <!-- Generator: Sketch 53.2 (72643) - https://sketchapp.com -->
    <title>Gauntlet</title>
    <desc>Created with Sketch.</desc>
    <defs>
        <linearGradient x1="53.3292907%" y1="36.8609548%" x2="78.9430393%" y2="72.01211%" id="linearGradient-1">
            <stop stop-color="#F8E71C" offset="0%"></stop>
            <stop stop-color="#C1AE07" offset="100%"></stop>
        </linearGradient>
        <linearGradient x1="50%" y1="0%" x2="50%" y2="100%" id="linearGradient-2">
            <stop stop-color="#B4EC51" offset="0%"></stop>
            <stop stop-color="#429321" offset="100%"></stop>
        </linearGradient>
        <linearGradient x1="1.64637566%" y1="0%" x2="100.287767%" y2="100.999999%" id="linearGradient-3">
            <stop stop-color="#3023AE" offset="0%"></stop>
            <stop stop-color="#C86DD7" offset="100%"></stop>
        </linearGradient>
        <linearGradient x1="50%" y1="0%" x2="50%" y2="100%" id="linearGradient-4">
            <stop stop-color="#3DC28F" offset="0%"></stop>
            <stop stop-color="#019059" offset="100%"></stop>
        </linearGradient>
        <linearGradient x1="50%" y1="0%" x2="50%" y2="100%" id="linearGradient-5">
            <stop stop-color="#F5515F" offset="0%"></stop>
            <stop stop-color="#9F041B" offset="100%"></stop>
        </linearGradient>
        <linearGradient x1="50%" y1="0%" x2="50%" y2="100%" id="linearGradient-6">
            <stop stop-color="#FAD961" offset="0%"></stop>
            <stop stop-color="#F76B1C" offset="100%"></stop>
        </linearGradient>
    </defs>
    <g id="Page-1" stroke="none" stroke-width="1" fill="none" fill-rule="evenodd">
        <g id="Artboard" transform="translate(-523.000000, -104.000000)" stroke="#979797">
            <g id="Gauntlet" transform="translate(524.000000, 105.000000)">
                <path d="M5.34375,39.6229744 C4.0871033,38.6389069 3.29690833,36.8275862 2.97316509,34.1890122 C2.65811416,31.6212822 2.64965524,27.1686403 2.94778833,20.8310864 L2.94774691,20.8310845 C2.9637515,20.4908674 3.12356962,20.173477 3.38736254,19.9580307 C5.97089356,17.8479965 8.40427272,16.5539211 10.6875,16.0758046 C12.955208,15.6009379 16.7802174,15.5738542 22.1625281,15.9945535 L22.1625293,15.9945388 C22.7797097,16.0427797 23.3287952,16.4047886 23.6163328,16.9530231 L27.90625,25.1324084 L30.7912529,28.0661154 C32.417669,29.7199884 32.3954109,32.3791882 30.7415378,34.0056043 C30.7057196,34.0408279 30.6692723,34.0754061 30.6322135,34.1093221 L27.90625,36.6041065 C22.7281329,39.4578137 18.7697995,41.0678766 16.03125,41.4342952 C13.2927005,41.8007138 9.73020046,41.1969402 5.34375,39.6229744 Z" id="Path-15" stroke-width="1.2" fill="#F5C923"></path>
                <path d="M5.34375,39.6229744 L3.55271368e-15,57.736182 C5.07986111,61.7387188 8.93923611,63.7399872 11.578125,63.7399872 C14.2170139,63.7399872 18.0763889,61.7387188 23.15625,57.736182 L25.53125,38.4154273 C20.2797124,40.4280059 16.598388,41.4342952 14.4872769,41.4342952 C12.3761658,41.4342952 9.3283235,40.8305216 5.34375,39.6229744 Z" id="Path-16" stroke-width="1.2" fill="#F5C923"></path>
                <path d="M10.014452,43.0863464 L8.90625,57.736182 L14.546875,57.736182 L20.1191518,43.1655754 C20.3558848,42.5465568 20.045981,41.852833 19.4269624,41.6161001 C19.2688227,41.5556223 19.0996752,41.5292931 18.9306352,41.5388428 L11.143349,41.9787733 C10.5425826,42.0127127 10.0598403,42.4863363 10.014452,43.0863464 Z" id="Path-17" stroke-width="1.2"></path>
                <path d="M7.71875,16.6795782 L7.125,8.22674802 L8.65857224,2.82627778 C8.80512614,2.31018867 9.27643712,1.95408128 9.81293132,1.95408128 L12.3227451,1.95408128 C12.9854868,1.95408128 13.5227451,2.49133958 13.5227451,3.15408128 C13.5227451,3.33767473 13.4806191,3.51882027 13.3996095,3.68357463 L12.46875,5.57672279 L12.765625,15.6981132 L7.71875,16.6795782 Z" id="Path-18-Copy" stroke-width="1.2" fill="#F5C923"></path>
                <path d="M12.765625,15.6981132 L12.765625,5.15231781 L14.5407905,0.751130707 C14.7238649,0.297232544 15.164249,1.42217409e-15 15.653677,1.33226763e-15 L18.3129978,1.11022302e-15 C18.9757395,3.99846474e-16 19.5129978,0.5372583 19.5129978,1.2 C19.5129978,1.37344618 19.4753984,1.54483101 19.4027898,1.70234789 L18.40625,3.86423836 L18.2870538,15.6981132 L12.765625,15.6981132 Z" id="Path-18-Copy-2" stroke-width="1.2" fill="#F5C923"></path>
                <path d="M18.40625,15.6981132 L18.40625,5.81165368 L20.1721322,1.7072114 C20.3616047,1.26682021 20.7950197,0.981464996 21.2744404,0.981464996 L23.9008701,0.981464996 C24.5636118,0.981464996 25.1008701,1.5187233 25.1008701,2.181465 C25.1008701,2.36505844 25.0587441,2.54620399 24.9777345,2.71095835 L24.046875,4.60410651 L24.3104115,15.8615466 C24.3181675,16.1928002 24.055921,16.4676217 23.7246675,16.4753778 C23.5893922,16.4785452 23.4570186,16.4358903 23.3490421,16.3543397 C22.8718558,15.9939385 22.4117585,15.7751964 21.96875,15.6981132 C21.2252212,15.5687397 20.0377212,15.5687397 18.40625,15.6981132 Z" id="Path-18-Copy-3" stroke-width="1.2" fill="#F5C923"></path>
                <path d="M30.4657553,28.0057018 L31.2797637,23.21177 L30.2650826,20.4239564 C30.0384115,19.8011829 30.359516,19.1125721 30.9822895,18.8859011 C31.1432328,18.8273225 31.314851,18.8038746 31.4856093,18.8171333 L34.454696,19.0476709 C35.0303582,19.0923688 35.4925733,19.540694 35.5548092,20.114725 L35.9836146,24.069798 L34.3773046,31.7221937 C33.7327402,30.329572 33.1777223,29.4121314 32.7122512,28.969872 C32.24678,28.5276125 31.4979481,28.2062224 30.4657553,28.0057018 Z" id="Path-18-Copy-4" stroke-width="1.2" fill="#F5C923" transform="translate(33.088001, 25.267863) rotate(20.000000) translate(-33.088001, -25.267863) "></path>
                <path d="M14.84375,25.4602034 L11.0301293,27.1394273 L11.0301293,30.3706725 L14.84375,32.0498964 L18.6573707,30.3706725 L18.6573707,27.1394273 L14.84375,25.4602034 Z" id="Polygon" stroke-width="0.6" fill="url(#linearGradient-1)"></path>
                <path d="M31.171875,27.2916105 L29.672166,28.1720852 L29.672166,29.9417882 L31.171875,30.8222629 L32.671584,29.9417882 L32.671584,28.1720852 L31.171875,27.2916105 Z" id="Polygon" stroke-width="0.6" fill="url(#linearGradient-2)"></path>
                <path d="M21.078125,14.0085917 L19.578416,14.8890663 L19.578416,16.6587693 L21.078125,17.539244 L22.577834,16.6587693 L22.577834,14.8890663 L21.078125,14.0085917 Z" id="Polygon-Copy" stroke-width="0.6" fill="url(#linearGradient-3)"></path>
                <path d="M15.734375,14.0085917 L14.234666,14.8890663 L14.234666,16.6587693 L15.734375,17.539244 L17.234084,16.6587693 L17.234084,14.8890663 L15.734375,14.0085917 Z" id="Polygon-Copy-2" stroke-width="0.6" fill="url(#linearGradient-4)"></path>
                <path d="M10.390625,14.6123653 L8.89091596,15.4928399 L8.89091596,17.2625429 L10.390625,18.1430176 L11.890334,17.2625429 L11.890334,15.4928399 L10.390625,14.6123653 Z" id="Polygon-Copy-3" stroke-width="0.6" fill="url(#linearGradient-5)"></path>
                <path d="M2.96875,20.3022197 L2.73035766,9.31682974 L4.74013582,5.43594264 C4.99331754,4.94704804 5.5467068,4.69315979 6.08243219,4.8201134 L6.59517956,4.9416218 C7.2225825,5.09030071 7.62034648,5.70820383 7.49591541,6.34086233 L7.125,8.22674802 L7.71875,16.6795782 L2.96875,20.3022197 Z" id="Path-18" stroke-width="1.2" fill="#F5C923"></path>
                <path d="M5.640625,17.0274596 L4.14091596,17.9079343 L4.14091596,19.6776372 L5.640625,20.5581119 L7.14033404,19.6776372 L7.14033404,17.9079343 L5.640625,17.0274596 Z" id="Polygon-Copy-4" stroke-width="0.6" fill="url(#linearGradient-6)"></path>
            </g>
        </g>
    </g>
</svg>