<?xml version="1.0" encoding="UTF-8"?>
<svg width="206px" height="226px" viewBox="0 0 206 226" version="1.1" xmlns="http://www.w3.org/2000/svg" xmlns:xlink="http://www.w3.org/1999/xlink">
    <!-- Generator: Sketch 52.4 (67378) - http://www.bohemiancoding.com/sketch -->
    <title>mole</title>
    <desc>Created with Sketch.</desc>
    <defs>
        <linearGradient x1="50%" y1="0%" x2="50%" y2="100%" id="linearGradient-1">
            <stop stop-color="#FAD961" offset="0%"></stop>
            <stop stop-color="#F76B1C" offset="100%"></stop>
        </linearGradient>
        <linearGradient x1="50%" y1="0%" x2="50%" y2="100%" id="linearGradient-2">
            <stop stop-color="#E992D7" offset="0%"></stop>
            <stop stop-color="#E2B1E2" offset="100%"></stop>
        </linearGradient>
        <linearGradient x1="27.3602544%" y1="18.7873013%" x2="90.1838279%" y2="90.3397894%" id="linearGradient-3">
            <stop stop-color="#FFCEAE" offset="0%"></stop>
            <stop stop-color="#FFB280" offset="100%"></stop>
        </linearGradient>
        <linearGradient x1="-8.6108091%" y1="1770.32632%" x2="108.55641%" y2="1770.32632%" id="linearGradient-4">
            <stop stop-color="#8A8A8A" offset="0%"></stop>
            <stop stop-color="#F1F1F1" offset="28.57%"></stop>
            <stop stop-color="#FFFFFF" offset="100%"></stop>
        </linearGradient>
        <linearGradient x1="-8.63327515%" y1="1772.18319%" x2="108.533944%" y2="1772.18319%" id="linearGradient-5">
            <stop stop-color="#8A8A8A" offset="0%"></stop>
            <stop stop-color="#F1F1F1" offset="28.57%"></stop>
            <stop stop-color="#FFFFFF" offset="100%"></stop>
        </linearGradient>
    </defs>
    <g id="Page-1" stroke="none" stroke-width="1" fill="none" fill-rule="evenodd">
        <g id="mole" transform="translate(3.000000, 3.000000)">
            <path d="M94,2.96868723 C79.3741079,3.13907267 47.0701571,-9.72373429 33.9908446,22.1465507 C27.4719895,13.4818654 22.5727096,2.1647473 12.9596474,2.2067929 C3.34658524,2.2488385 -13.4203953,28.0542803 22.5727096,46.4100876 C35.0746943,162.402972 9.60446203,206.97573 83.6093577,205.38243 C87.8255511,205.291623 92.4541809,205.352878 97.2523499,205.466387 L97.3782181,205.466387 L99.5610968,205.508299 L99.5610968,205.424342 C104.363538,205.310563 108.984457,205.249483 113.204089,205.340385 C187.208985,206.933685 161.738752,162.360926 174.240737,46.368042 C210.233842,28.0122347 200,5.7012 190,5.7012 C180,5.7012 166,18 162.822602,22.1045051 C149.301757,-10.8416637 111.695055,2.92657446 98.0918515,2.92657446 C97.928908,2.92670879 96.5649575,2.94074638 94,2.96868723 Z" id="Shape" stroke="#000000" stroke-width="5.81003068" fill="#B2733A" stroke-linecap="round" stroke-linejoin="round"></path>
            <path d="M100.084995,221 C61.6005484,221 30.4027331,222.700102 30.4027331,180.171451 C30.4027331,137.6428 61.6005484,103.166505 100.084995,103.166505 C138.569442,103.166505 169.767258,137.6428 169.767258,180.171451 C169.767258,222.700102 138.569442,221 100.084995,221 Z" id="Shape" stroke="#000000" stroke-width="2.70512659" fill="#CA9A70"></path>
            <path d="M41.5316631,51.673109 C41.5316631,71.6615215 55.560924,87.879249 72.8360653,87.879249 C82.9881172,87.879249 91.9955883,82.2725824 97.7145963,73.5962774 C103.431657,82.2783855 112.460433,87.879249 122.618301,87.879249 C139.887626,87.879249 153.918834,71.6576662 153.918834,51.673109 C153.918834,31.6885518 139.887626,17 122.618301,17 C117.510173,17 107.680578,24.54433 97.7145963,24.54433 C87.8663284,24.54433 73.6703038,15.7716456 69,17 C63.1639347,18.5349658 41.5316631,31.6846965 41.5316631,51.673109 Z" id="Shape" stroke="#000000" stroke-width="5.48446607" fill="#FFFFFF" stroke-linecap="round"></path>
            <path d="M138.189593,18.9646939 C138.571773,21.2624351 138.753209,23.6489969 138.753209,26.0751077 C138.753209,46.7155067 124.289004,63.4480422 106.452927,63.4480422 C95.9616983,63.4480422 86.6040974,57.6740101 80.6994081,48.7069772 C74.7927257,57.6680136 65.5178276,63.4480422 55.0326124,63.4480422 C49.8311049,63.4480422 44.9073935,62.0316612 40.5516834,59.5026399 C43.4247568,76.7495202 56.5460807,89.808557 72.2883314,89.808557 C82.773564,89.808557 92.0918065,83.9851667 97.9984889,75.0241303 C103.903178,83.9911632 113.217417,89.808557 123.708646,89.808557 C141.544724,89.808557 156.05229,73.0326598 156.05229,52.3922434 C156.05229,37.7663073 148.773195,25.1102993 138.189593,18.9646939 Z" id="Shape" fill="#A5A5A5" opacity="0.3374"></path>
            <g id="Group" transform="translate(115.000000, 39.000000)" fill="#000000" stroke="#000000" stroke-width="3.47633502">
                <path d="M18,19.0020301 C18,29.4937493 13.9707234,38 9.00096166,38 C4.02927664,38 0,29.4937493 0,19.0020301 C0,8.50625068 4.02927664,0 9.00096166,0 C13.9726467,0 18,8.50625068 18,19.0020301 Z" id="Shape"></path>
            </g>
            <g id="Group-Copy" transform="translate(65.545862, 39.000000)" fill="#000000" stroke="#000000" stroke-width="3.47633502">
                <path d="M18,19.0020301 C18,29.4937493 13.9707234,38 9.00096166,38 C4.02927664,38 0,29.4937493 0,19.0020301 C0,8.50625068 4.02927664,0 9.00096166,0 C13.9726467,0 18,8.50625068 18,19.0020301 Z" id="Shape"></path>
            </g>
            <path d="M178.698581,34.834723 C171.698581,36.834723 165.698581,26.989743 169.606857,24.3983133 L181.606857,14.8217733 C189.606857,9.51453326 202.418024,19.8392594 178.698581,34.834723 Z" id="Shape-Copy-2" stroke="#000000" stroke-width="1.34331" fill="url(#linearGradient-1)" stroke-linecap="round" stroke-linejoin="round" transform="translate(180.345694, 24.256074) rotate(-2.000000) translate(-180.345694, -24.256074) "></path>
            <path d="M178.698581,34.834723 C171.698581,36.834723 165.698581,26.989743 169.606857,24.3983133 L181.606857,14.8217733 C189.606857,9.51453326 202.418024,19.8392594 178.698581,34.834723 Z" id="Shape-Copy-3" stroke="#000000" stroke-width="1.34331" fill="url(#linearGradient-2)" stroke-linecap="round" stroke-linejoin="round" transform="translate(180.345694, 24.256074) rotate(-2.000000) translate(-180.345694, -24.256074) "></path>
            <path d="M16.6985812,34.834723 C9.69858119,36.834723 3.69858119,26.989743 7.60685679,24.3983133 L19.6068568,14.8217733 C27.6068568,9.51453326 40.4180242,19.8392594 16.6985812,34.834723 Z" id="Shape-Copy-4" stroke="#000000" stroke-width="1.34331" fill="url(#linearGradient-2)" stroke-linecap="round" stroke-linejoin="round" transform="translate(18.345694, 24.256074) scale(-1, 1) rotate(-2.000000) translate(-18.345694, -24.256074) "></path>
            <path d="M55.0124506,100.036222 C55.0124506,101.330899 55.4322349,106.624708 55.4322349,108.106612 C55.4322349,118.816675 75.4311521,127.493316 100.097292,127.493316 C124.763433,127.493316 144.76235,118.816675 144.76235,108.106612 C144.76235,106.402075 144.342566,101.10852 144.342566,100.036222 C144.342566,94.8898312 111.024958,77 99.8874003,77 C88.3420538,77 55.0124506,95.3357915 55.0124506,100.036222 Z" id="Shape" stroke="#000000" stroke-width="2.68662" fill="url(#linearGradient-3)"></path>
            <path d="M83,82.7729445 C83,74.0617941 90.0617807,67 98.7729311,67 C107.484081,67 114.545862,74.0617807 114.545862,82.7729445 C114.545862,91.4840945 83,91.4840945 83,82.7729445 Z" id="Shape" fill="#000000"></path>
            <path d="M80,108 L97.8780725,108 L97.8780725,126.303735 C97.8780725,131.240628 93.8759296,135.242771 88.9390363,135.242771 L88.9390363,135.242771 C84.0021429,135.242771 80,131.240628 80,126.303735 L80,108 Z" id="Shape" stroke="#000000" stroke-width="3.04518974" fill="url(#linearGradient-4)"></path>
            <path d="M103,108 L120.878072,108 L120.878072,126.303734 C120.878072,131.240627 116.875929,135.24277 111.939036,135.24277 L111.939036,135.24277 C107.002143,135.24277 103,131.240627 103,126.303734 L103,108 Z" id="Shape" stroke="#000000" stroke-width="3.04518974" fill="url(#linearGradient-5)"></path>
            <path d="M67,106.5 L139,106.5" id="Path" stroke="#000000" stroke-width="5" stroke-linecap="round" fill-rule="nonzero"></path>
        </g>
    </g>
</svg>