<?xml version="1.0" encoding="UTF-8"?>
<svg width="148px" height="202px" viewBox="0 0 148 202" version="1.1" xmlns="http://www.w3.org/2000/svg" xmlns:xlink="http://www.w3.org/1999/xlink">
    <!-- Generator: Sketch 53.2 (72643) - https://sketchapp.com -->
    <title>Thanos</title>
    <desc>Created with Sketch.</desc>
    <defs>
        <linearGradient x1="50%" y1="-36.8985838%" x2="50%" y2="107.021954%" id="linearGradient-1">
            <stop stop-color="#545248" offset="0%"></stop>
            <stop stop-color="#000000" offset="100%"></stop>
        </linearGradient>
        <linearGradient x1="50%" y1="-36.8985838%" x2="50%" y2="107.021954%" id="linearGradient-2">
            <stop stop-color="#545248" offset="0%"></stop>
            <stop stop-color="#000000" offset="100%"></stop>
        </linearGradient>
        <path d="M70.1614514,38.4176092 C69.87702,39.7989301 69.7348043,41.0381291 69.7348043,42.1352061 C69.7348043,44.088537 69.8675128,44.9229671 70.3359278,46.041868 C71.5666258,48.9816305 72.1392986,49.6475214 74.543793,52.0514622 C76.1222121,53.6295179 78.1863244,54.4306432 80.7361302,54.454838 L80.7361302,54.4548323 C80.813458,54.4555661 80.8907527,54.4513158 80.9675339,54.442108 C84.3080891,54.0414997 86.3747073,53.4449462 87.1673885,52.6524475 C87.8079761,52.0120074 88.3205682,50.8597034 88.7051649,49.1955355 L88.7051858,49.1955404 C88.8867364,48.4099621 88.5237429,47.5994841 87.8167455,47.2118651 L71.037581,38.0124978 C70.747012,37.8531902 70.382315,37.9595986 70.2230074,38.2501675 C70.1942595,38.3026022 70.1735116,38.3590397 70.1614514,38.4176092 Z" id="path-3"></path>
        <filter x="-7.9%" y="-7.1%" width="115.8%" height="116.0%" filterUnits="objectBoundingBox" id="filter-4">
            <feGaussianBlur stdDeviation="1" in="SourceAlpha" result="shadowBlurInner1"></feGaussianBlur>
            <feOffset dx="0" dy="1" in="shadowBlurInner1" result="shadowOffsetInner1"></feOffset>
            <feComposite in="shadowOffsetInner1" in2="SourceAlpha" operator="arithmetic" k2="-1" k3="1" result="shadowInnerInner1"></feComposite>
            <feColorMatrix values="0 0 0 0 0   0 0 0 0 0   0 0 0 0 0  0 0 0 0.5 0" type="matrix" in="shadowInnerInner1"></feColorMatrix>
        </filter>
        <path d="M22.0715638,38.4176092 C21.7871323,39.7989301 21.6449166,41.0381291 21.6449166,42.1352061 C21.6449166,44.088537 21.7776252,44.9229671 22.2460402,46.041868 C23.4767381,48.9816305 24.049411,49.6475214 26.4539054,52.0514622 C28.0323244,53.6295179 30.0964368,54.4306432 32.6462425,54.454838 L32.6462426,54.4548323 C32.7235704,54.4555661 32.8008651,54.4513158 32.8776462,54.442108 C36.2182015,54.0414997 38.2848197,53.4449462 39.0775009,52.6524475 C39.7180884,52.0120074 40.2306805,50.8597034 40.6152772,49.1955355 L40.6152981,49.1955404 C40.7968488,48.4099621 40.4338553,47.5994841 39.7268578,47.2118651 L22.9476933,38.0124978 C22.6571244,37.8531902 22.2924274,37.9595986 22.1331198,38.2501675 C22.1043719,38.3026022 22.083624,38.3590397 22.0715638,38.4176092 Z" id="path-5"></path>
        <filter x="-7.9%" y="-7.1%" width="115.8%" height="116.0%" filterUnits="objectBoundingBox" id="filter-6">
            <feGaussianBlur stdDeviation="1" in="SourceAlpha" result="shadowBlurInner1"></feGaussianBlur>
            <feOffset dx="0" dy="1" in="shadowBlurInner1" result="shadowOffsetInner1"></feOffset>
            <feComposite in="shadowOffsetInner1" in2="SourceAlpha" operator="arithmetic" k2="-1" k3="1" result="shadowInnerInner1"></feComposite>
            <feColorMatrix values="0 0 0 0 0   0 0 0 0 0   0 0 0 0 0  0 0 0 0.5 0" type="matrix" in="shadowInnerInner1"></feColorMatrix>
        </filter>
        <ellipse id="path-7" cx="52.5" cy="50" rx="2.5" ry="3"></ellipse>
        <filter x="-30.0%" y="-25.0%" width="160.0%" height="150.0%" filterUnits="objectBoundingBox" id="filter-8">
            <feGaussianBlur stdDeviation="1" in="SourceAlpha" result="shadowBlurInner1"></feGaussianBlur>
            <feOffset dx="0" dy="1" in="shadowBlurInner1" result="shadowOffsetInner1"></feOffset>
            <feComposite in="shadowOffsetInner1" in2="SourceAlpha" operator="arithmetic" k2="-1" k3="1" result="shadowInnerInner1"></feComposite>
            <feColorMatrix values="0 0 0 0 0   0 0 0 0 0   0 0 0 0 0  0 0 0 0.5 0" type="matrix" in="shadowInnerInner1"></feColorMatrix>
        </filter>
        <ellipse id="path-9" cx="94.5" cy="50" rx="2.5" ry="3"></ellipse>
        <filter x="-30.0%" y="-25.0%" width="160.0%" height="150.0%" filterUnits="objectBoundingBox" id="filter-10">
            <feGaussianBlur stdDeviation="1" in="SourceAlpha" result="shadowBlurInner1"></feGaussianBlur>
            <feOffset dx="0" dy="1" in="shadowBlurInner1" result="shadowOffsetInner1"></feOffset>
            <feComposite in="shadowOffsetInner1" in2="SourceAlpha" operator="arithmetic" k2="-1" k3="1" result="shadowInnerInner1"></feComposite>
            <feColorMatrix values="0 0 0 0 0   0 0 0 0 0   0 0 0 0 0  0 0 0 0.5 0" type="matrix" in="shadowInnerInner1"></feColorMatrix>
        </filter>
    </defs>
    <g id="Page-1" stroke="none" stroke-width="1" fill="none" fill-rule="evenodd">
        <g id="Artboard" transform="translate(-181.000000, -190.000000)">
            <g id="Thanos" transform="translate(183.000000, 191.000000)">
                <path d="M36.7293755,113.423003 L33.3835316,135.115015 L31.3486368,174.281148 L19.9892993,180.909263 L17,194.768048 C23.6027874,197.433071 29.3820994,198.839035 34.3379361,198.98594 C39.2937728,199.132844 47.065951,198.128585 57.6544708,195.97316 L73.4977572,169.460701 L88.7431838,194.768048 C99.184624,196.580985 106.757516,197.384393 111.461859,197.178272 C116.166202,196.972151 122.345582,195.566187 130,192.960381 L130,180.909263 L117.440457,172.47348 L116.244738,135.115015 L111.461859,130.897124 L107.27684,108 L36.7293755,113.423003 Z" id="Path-19" stroke="#979797" stroke-width="0.6" fill="#CC92FF"></path>
                <g id="Group-2" transform="translate(66.000000, 27.000000)"></g>
                <g id="left-arm" transform="translate(0.000000, 110.000000)" fill="#CC92FF" stroke="#979797">
                    <path d="M31.7858095,-7.10542736e-15 C24.2442491,6.13081593 18.9874185,10.8468023 16.0153177,14.1479592 C13.0432168,17.449116 9.8082441,22.1651024 6.31039962,28.2959184 C2.82819825,36.329347 0.806340329,41.9483947 0.244825854,45.1530612 C-0.316688621,48.3577278 0.0876829633,51.3679319 1.45794061,54.1836735 C3.13144393,56.4498364 4.34455869,57.8545983 5.09728487,58.3979592 C6.22637415,59.2130005 7.52351438,59 8.73662913,58.3979592 C9.94974389,57.7959184 5.09728487,51.7755102 5.70384225,49.9693878 C6.31039962,48.1632653 7.27884152,46.3571429 8.73662913,46.9591837 C9.23196438,47.1637485 10.04037,47.5546951 11.1618459,48.1320236 L11.1618408,48.1320335 C11.9873764,48.5570139 12.9839849,48.467689 13.7207888,47.902678 C14.8461031,47.0397415 15.4087603,46.1232026 15.4087603,45.1530612 C15.4087603,44.0308122 14.9570047,42.9802919 14.0534936,42.0015003 L14.0535065,42.0014883 C13.8287494,41.7580044 13.8439304,41.37842 14.0874143,41.1536629 C14.0994295,41.1425718 14.1118932,41.1319765 14.1247739,41.1219036 L33.6054816,25.8877551 L36.6382685,3.6122449 L31.7858095,-7.10542736e-15 Z" id="Path-2" stroke-width="2.4"></path>
                    <path d="M6.916957,53.5816327 C8.7422151,53.144475 9.95532985,52.5424342 10.5563013,51.7755102 C11.1572727,51.0085862 11.5616443,49.8045046 11.769416,48.1632653 L8.73662913,46.9591837 C7.86701143,47.2931132 7.26045405,47.6944738 6.916957,48.1632653 C6.57345995,48.6320568 6.16908837,49.3344378 5.70384225,50.2704082 L6.916957,53.5816327 Z" id="Path-12" stroke-width="1.2"></path>
                    <path d="M7.52351438,53.5816327 C8.96017507,56.4052905 9.97110404,58.0107327 10.5563013,58.3979592 C11.4340971,58.9787989 12.4288052,57.963321 12.9825308,57.1938776 C13.5362564,56.4244341 14.4586156,55.5645579 13.5890881,54.1836735 C13.0094032,53.2630839 11.7962884,52.661043 9.94974389,52.377551 L7.52351438,53.5816327 Z" id="Path-13" stroke-width="1.2"></path>
                    <path d="M10.1283343,51.7755102 C11.2788593,52.9549106 12.2743852,53.3562712 13.1149121,52.9795918 C14.3757024,52.4145728 15.3708831,50.9333942 14.8302385,49.6683673 C14.4698088,48.8250161 13.2119028,48.3233154 11.0565204,48.1632653" id="Path-14" stroke-width="1.2"></path>
                </g>
                <polygon id="Path-20" stroke="#979797" stroke-width="2.4" fill="#E3CA0F" points="37.4216679 113 35 133 41.0541698 133 47 120.058824"></polygon>
                <path d="M42,130.388889 C46.7529085,131.400765 50.3766709,132.011876 52.8712871,132.222222 C55.3659033,132.432568 58.9896657,132.432568 63.7425743,132.222222 L67.3663366,142 L80.6534653,142 L83.0693069,132.222222 L103,127.944444 L100.260669,120 C97.0273275,121.657045 93.9140351,122.879268 90.9207921,123.666667 C87.9275491,124.454066 83.297186,125.268881 77.029703,126.111111 L77.029703,132.222222 L71.5940594,132.222222 L71.5940594,126.111111 L57.7029703,126.111111 L46.1196438,122.071532 L42,130.388889 Z" id="Path-21" stroke="#979797" stroke-width="2.4" fill="#E3CA0F"></path>
                <polygon id="Path-20-Copy" stroke="#979797" stroke-width="2.4" fill="#E3CA0F" transform="translate(104.000000, 122.000000) scale(-1, 1) rotate(-3.000000) translate(-104.000000, -122.000000) " points="100.13563 109 98 135 104.234966 135 110 116.421261"></polygon>
                <g id="left-arm-copy" transform="translate(125.500000, 133.500000) scale(-1, 1) translate(-125.500000, -133.500000) translate(107.000000, 104.000000)" fill="#CC92FF" stroke="#979797">
                    <path d="M6.916957,53.5816327 C8.7422151,53.144475 9.95532985,52.5424342 10.5563013,51.7755102 C11.1572727,51.0085862 11.5616443,49.8045046 11.769416,48.1632653 L8.73662913,46.9591837 C7.86701143,47.2931132 7.26045405,47.6944738 6.916957,48.1632653 C6.57345995,48.6320568 6.16908837,49.3344378 5.70384225,50.2704082 L6.916957,53.5816327 Z" id="Path-12" stroke-width="1.2"></path>
                    <path d="M7.52351438,53.5816327 C8.96017507,56.4052905 9.97110404,58.0107327 10.5563013,58.3979592 C11.4340971,58.9787989 12.4288052,57.963321 12.9825308,57.1938776 C13.5362564,56.4244341 14.4586156,55.5645579 13.5890881,54.1836735 C13.0094032,53.2630839 11.7962884,52.661043 9.94974389,52.377551 L7.52351438,53.5816327 Z" id="Path-13" stroke-width="1.2"></path>
                    <path d="M10.1283343,51.7755102 C11.2788593,52.9549106 12.2743852,53.3562712 13.1149121,52.9795918 C14.3757024,52.4145728 15.3708831,50.9333942 14.8302385,49.6683673 C14.4698088,48.8250161 13.2119028,48.3233154 11.0565204,48.1632653" id="Path-14" stroke-width="1.2"></path>
                    <path d="M31.7858095,-7.10542736e-15 C24.2442491,6.13081593 18.9874185,10.8468023 16.0153177,14.1479592 C13.0432168,17.449116 9.8082441,22.1651024 6.31039962,28.2959184 C2.82819825,36.329347 0.806340329,41.9483947 0.244825854,45.1530612 C-0.316688621,48.3577278 0.0876829633,51.3679319 1.45794061,54.1836735 C3.13144393,56.4498364 4.34455869,57.8545983 5.09728487,58.3979592 C6.22637415,59.2130005 7.52351438,59 8.73662913,58.3979592 C9.94974389,57.7959184 5.09728487,51.7755102 5.70384225,49.9693878 C6.31039962,48.1632653 7.27884152,46.3571429 8.73662913,46.9591837 C9.23196438,47.1637485 10.04037,47.5546951 11.1618459,48.1320236 L11.1618408,48.1320335 C11.9873764,48.5570139 12.9839849,48.467689 13.7207888,47.902678 C14.8461031,47.0397415 15.4087603,46.1232026 15.4087603,45.1530612 C15.4087603,44.0570677 14.9778954,43.0294858 14.1161657,42.0703156 L14.1161574,42.070323 C13.8946943,41.8238179 13.9149948,41.4444546 14.1615,41.2229915 C14.1921384,41.1954656 14.2255296,41.1711676 14.2611453,41.1504817 L36.3934426,28.2959184 L36.6382685,3.6122449 L31.7858095,-7.10542736e-15 Z" id="Path-2" stroke-width="2.4"></path>
                </g>
                <path d="M40.4176669,151.130435 L63.7885426,151.130435 L65.3767469,153.601748 C65.882951,154.389424 66.7278867,154.895589 67.6612123,154.970276 L78.0896064,155.804777 C79.5620021,155.922601 80.9569638,155.129051 81.6081054,153.803213 L82.920752,151.130435 L107.433895,149.913043 L108.031777,145.043478 L113.916392,140.65004 L114.286707,140.373564 C115.348826,139.580589 115.56701,138.076738 114.774034,137.014619 C114.612072,136.797684 114.414572,136.609717 114.189897,136.458674 L110.209321,133.782646 L103.111169,133.464675 C102.839695,133.452513 102.610288,133.259414 102.551989,132.993995 L101.958925,130.293899 C101.678911,129.019057 100.431415,128.201712 99.1508084,128.454055 L85.5488103,131.134317 C83.9458911,131.450171 82.6715822,132.666881 82.2819774,134.253488 L80.5292259,141.391304 L67.3758319,141.391304 L64.5559146,133.735512 C64.0854684,132.458298 62.9349174,131.555611 61.5824423,131.402618 L44.0245547,129.416455 C42.9783844,129.298112 41.9772323,129.875426 41.555621,130.840165 L40.6310621,132.955759 C40.5093373,133.234291 40.1985488,133.37779 39.9075925,133.289802 L34.492347,131.652174 L33.0329449,139.576434 C32.8358771,140.646473 33.3832985,141.715216 34.366802,142.180554 L40.4176669,145.043478 L40.4176669,151.130435 Z" id="Path-23" stroke="#979797" stroke-width="2.4" fill="#0258A0" stroke-linecap="round"></path>
                <path d="M33.1715422,168.249433 L70,175.901961 L57.4927746,195.947072 C49.5537713,197.982357 42.6067416,199 36.6516854,199 C30.6966292,199 24.1460674,197.784314 17,195.352941 L19.9355353,181.050703 C19.9725784,180.870225 20.090487,180.716772 20.2553363,180.634496 C25.5393676,177.997248 28.4242929,176.419736 28.9101124,175.901961 C30.1646662,174.564886 31.1118109,172.325856 31.7515465,169.184872 L31.7515203,169.184867 C31.8837907,168.535444 32.5174786,168.116208 33.166902,168.248479 C33.1684493,168.248794 33.1699961,168.249112 33.1715422,168.249433 Z" id="Path-24" stroke="#979797" stroke-width="2.4" fill="url(#linearGradient-1)"></path>
                <path d="M90.8556101,167 L130,175.4 L118.560662,193.98665 C109.859997,195.99555 103.033865,197 98.0822667,197 C93.1306686,197 86.1032464,195.4 77,192.2 L77.0000513,180.55918 C77.0000513,180.338183 77.121547,180.13508 77.316268,180.030564 C83.3380398,176.798406 87.048192,174.454884 88.4467245,173 C89.8695787,171.519814 90.6725406,169.519814 90.8556101,167 Z" id="Path-24-Copy" stroke="#979797" stroke-width="3" fill="url(#linearGradient-2)" transform="translate(103.500000, 182.000000) scale(-1, 1) translate(-103.500000, -182.000000) "></path>
                <polygon id="Path-25" stroke="#979797" stroke-width="0.6" fill="#E3CA0F" points="41 151.238095 41 158.047619 60.9677639 158.047619 65.191897 163 84.5022197 163 87.5194576 158.047619 109 156.809524 109 150 84.5022197 151.238095 81.4849818 156.190476 67.0022397 154.642857 64.5884494 151.238095"></polygon>
                <polygon id="Path-26" stroke="#979797" stroke-width="2.4" fill="#0258A0" points="32.4962914 143 32 169 40 158.849338 40 146.522075"></polygon>
                <polygon id="Path-26-Copy-2" stroke="#979797" stroke-width="2.4" fill="#0258A0" transform="translate(112.000000, 155.000000) scale(-1, 1) translate(-112.000000, -155.000000) " points="107 140 107 170 117 159.895269 117 145.859079"></polygon>
                <path d="M74.0273232,163.691071 C73.9221502,167.159546 74.1206026,169.757146 74.6226803,171.483871 C75.124758,173.210596 76.216246,175.049305 77.8971445,177 L116,168.594297 L107.665,158 L86.8275012,158.612903 L83.8507156,163.516129 L74.0273232,163.691071 Z" id="Path-28" stroke="#979797" stroke-width="2.4" fill="#265303"></path>
                <path d="M70.0612421,176 C71.920491,174.360555 73.1056453,172.760555 73.6167051,171.2 C74.127765,169.639445 74.127765,166.839445 73.6167051,162.8 L63.2401746,162.33631 L60.2754516,158 L40.655226,158 L33,167.771259 L70.0612421,176 Z" id="Path-29" stroke="#979797" stroke-width="2.4" fill="#265303"></path>
                <g id="Head" transform="translate(17.000000, 0.000000)">
                    <path d="M8.41573034,44.8396396 C9.19117489,30.4064324 12.1967929,20.5903404 17.4325843,15.3913637 C25.2862714,7.59289862 36.5260431,2.3897159 52.5983146,0.967718396 C68.6705861,-0.454279111 76.9438742,1.45631207 85.3595506,9.3815115 C88.9012919,12.7168354 94.0376394,17.0635507 96.7808989,25.6081125 C97.849113,28.9353302 98.8509856,34.5445256 99.7865169,42.4356987 C102.850821,42.9669903 104.654191,43.9686323 105.196629,45.4406248 C105.739067,46.9126173 106.139816,49.717215 106.398876,53.8544179 C106.450819,56.787858 106.05007,58.9914704 105.196629,60.4652553 C104.343189,61.9390402 102.539818,63.5416675 99.7865169,65.2731371 L100.936148,98.6047619 C100.969209,99.5633026 100.541962,100.479871 99.7865915,101.070894 L86.7746391,111.251817 L74.1515664,121.12847 C73.6238134,121.541399 72.9730052,121.765748 72.3029055,121.765748 L31.6986026,121.765748 C31.02414,121.765748 30.3693541,121.538472 29.8399333,121.120604 L8.95593752,104.637035 C8.23514898,104.068122 7.81460674,103.200436 7.81460674,102.282178 L7.81460674,68.8790484 C5.16563343,67.8746005 3.36226265,66.67263 2.40449438,65.2731371 C1.44672612,63.8736442 0.645227989,61.2693749 5.68434189e-14,57.4603292 C0.261734346,52.0596079 0.862857942,48.654025 1.80337079,47.2435805 C2.74388363,45.8331359 4.94800348,45.0318223 8.41573034,44.8396396 Z" id="Path" stroke="#979797" stroke-width="2.4" fill="#CC92FF"></path>
                    <g id="Path-3-Copy" transform="translate(79.242977, 46.041369) scale(-1, 1) translate(-79.242977, -46.041369) ">
                        <use fill="#310855" fill-rule="evenodd" xlink:href="#path-3"></use>
                        <use fill="black" fill-opacity="1" filter="url(#filter-4)" xlink:href="#path-3"></use>
                    </g>
                    <g id="Path-3-Copy-2">
                        <use fill="#310855" fill-rule="evenodd" xlink:href="#path-5"></use>
                        <use fill="black" fill-opacity="1" filter="url(#filter-6)" xlink:href="#path-5"></use>
                    </g>
                    <path d="M49.2921348,53.2534327 L49.2921348,61.2903007 C49.2921348,63.5224925 51.2958801,65.5512541 55.3033708,67.3765854 C59.8338659,65.9563683 62.2383603,63.9276068 62.5168539,61.2903007 C62.7953476,58.6529946 62.7953476,55.9740386 62.5168539,53.2534327" id="Path-4" stroke="#979797" stroke-width="1.2"></path>
                    <g id="Group" transform="translate(30.056180, 74.287915)" stroke="#979797" stroke-width="1.2">
                        <path d="M0.656334135,12.2344121 L1.98682882,9.01477833 L2.60754697,7.0355498 C3.03252997,5.68044445 4.2144762,4.70182778 5.62507669,4.53712404 L42.77176,0.199820714 C43.8751247,0.070990266 44.9761712,0.458756476 45.7553056,1.25056487 C47.5521847,3.07667344 48.831315,4.66310255 49.5926966,6.00985222 C50.9881002,8.47807482 59.3108614,15.0246305 44.4831461,15.0246305 C34.8863545,15.0246305 20.6311374,14.6470073 1.71749494,13.8917609 L1.71749473,13.8917663 C1.05527776,13.8653231 0.539881286,13.3070538 0.566324474,12.6448368 C0.571956274,12.5037996 0.60242649,12.364862 0.656334135,12.2344121 Z" id="Path-5" fill="#FFFFFF"></path>
                        <path d="M1.98682882,9.01477833 L50.6778401,7.51231527" id="Path-6"></path>
                        <path d="M45.0842697,0.300492611 L45.0842697,15.0246305" id="Path-7"></path>
                        <path d="M33.6629213,0.901477833 L33.6629213,15.0246305" id="Path-8"></path>
                        <path d="M25.7897627,2.10344828 L25.7897627,15.0246305" id="Path-9"></path>
                        <path d="M15.6292135,3.00492611 L15.6292135,14.1231527" id="Path-10"></path>
                        <path d="M6.01123596,4.80788177 L6.01123596,14.1231527" id="Path-11"></path>
                    </g>
                    <path d="M35.4662921,120.79803 L36.0674157,97.9605911" id="Path-22" stroke="#979797" stroke-width="1.8" stroke-linecap="round"></path>
                    <path d="M43.8820225,120.79803 L44.4831461,97.9605911" id="Path-22-Copy" stroke="#979797" stroke-width="1.8" stroke-linecap="round"></path>
                    <path d="M54.1011236,120.79803 L54.7022472,97.9605911" id="Path-22-Copy-2" stroke="#979797" stroke-width="1.8" stroke-linecap="round"></path>
                    <path d="M63.7191011,120.79803 L64.3202247,97.9605911" id="Path-22-Copy-3" stroke="#979797" stroke-width="1.8" stroke-linecap="round"></path>
                    <path d="M72.7359551,120.79803 L73.3370787,97.9605911" id="Path-22-Copy-4" stroke="#979797" stroke-width="1.8" stroke-linecap="round"></path>
                </g>
                <g id="Oval">
                    <use fill="#FFFFFF" fill-rule="evenodd" xlink:href="#path-7"></use>
                    <use fill="black" fill-opacity="1" filter="url(#filter-8)" xlink:href="#path-7"></use>
                </g>
                <g id="Oval-Copy">
                    <use fill="#FFFFFF" fill-rule="evenodd" xlink:href="#path-9"></use>
                    <use fill="black" fill-opacity="1" filter="url(#filter-10)" xlink:href="#path-9"></use>
                </g>
            </g>
        </g>
    </g>
</svg>